<svg width="240" height="31" viewBox="0 0 240 31" fill="none" xmlns="http://www.w3.org/2000/svg">
<g clip-path="url(#clip0)">
<path d="M132.086 12.4441C132.086 15.9693 133.74 18.7983 140.205 20.0366C144.063 20.8385 144.87 21.4599 144.87 22.7377C144.87 24.0156 144.063 24.7824 141.323 24.7824C138.038 24.7234 134.819 23.8575 131.953 22.2618V28.0344C133.9 28.9818 136.472 30.0437 141.265 30.0437C148.027 30.0437 150.71 27.0517 150.71 22.5967L132.086 12.4441ZM150.71 22.5967C150.71 18.3973 148.471 16.4276 142.148 15.0748C138.658 14.3081 137.811 13.5414 137.811 12.4309C137.811 11.0429 139.061 10.4612 141.358 10.4612C144.152 10.4612 146.906 11.3029 149.517 12.4706V6.96685C147.014 5.83409 144.286 5.27249 141.536 5.32322C135.288 5.32322 132.055 8.02441 132.055 12.4441" fill="#111111"/>
<path d="M218.945 5.68823V29.6773H224.089V11.3858L226.257 16.2418L233.533 29.6773H239.999V5.68823H234.855V21.1727L232.908 16.6781L227.064 5.68823H218.945Z" fill="#111111"/>
<path d="M186.229 5.68823H180.607V29.6773H186.229V5.68823Z" fill="#111111"/>
<path d="M174.119 22.5967C174.119 18.3973 171.879 16.4276 165.556 15.0748C162.066 14.3081 161.219 13.5414 161.219 12.4309C161.219 11.0429 162.47 10.4612 164.767 10.4612C167.56 10.4612 170.314 11.3029 172.926 12.4706V6.96685C170.422 5.83409 167.695 5.27249 164.944 5.32322C158.696 5.32322 155.464 8.02441 155.464 12.4441C155.464 15.9693 157.118 18.7983 163.583 20.0366C167.441 20.8385 168.248 21.4599 168.248 22.7377C168.248 24.0156 167.441 24.7824 164.7 24.7824C161.416 24.7234 158.197 23.8575 155.331 22.2618V28.0344C157.277 28.9818 159.849 30.0437 164.643 30.0437C171.405 30.0437 174.088 27.0517 174.088 22.5967" fill="#111111"/>
<path d="M88.4177 5.68823V29.6773H99.9733L101.791 24.4952H94.0758V5.68823H88.4177Z" fill="#111111"/>
<path d="M65.5861 5.68823V10.8747H71.8339V29.6773H77.492V10.8747H84.1789V5.68823H65.5861Z" fill="#111111"/>
<path d="M57.3827 5.69019H49.9686L41.5435 29.6792H47.9954L49.1749 25.6384C52.1188 26.5 55.2503 26.5 58.1942 25.6384L59.387 29.6792H65.8167L57.3827 5.69019ZM53.6757 21.3157C52.6251 21.3171 51.5798 21.1687 50.5717 20.875L53.6757 10.4007L56.7797 20.875C55.7716 21.1687 54.7262 21.3171 53.6757 21.3157Z" fill="#111111"/>
<path d="M119.893 5.68823H112.479L104.054 29.6773H110.484L111.685 25.6365C114.624 26.4946 117.749 26.4946 120.687 25.6365L121.88 29.6773H128.31L119.893 5.68823ZM116.186 21.3137C115.136 21.3152 114.09 21.1668 113.082 20.8731L116.186 10.3988L119.29 20.8731C118.282 21.1668 117.237 21.3152 116.186 21.3137Z" fill="#111111"/>
<path d="M206.484 5.68823H199.07L190.645 29.6773H197.075L198.276 25.6365C201.215 26.4946 204.34 26.4946 207.278 25.6365L208.471 29.6773H214.9L206.484 5.68823ZM202.777 21.3137C201.727 21.3152 200.681 21.1668 199.673 20.8731L202.777 10.3988L205.881 20.8731C204.873 21.1668 203.828 21.3152 202.777 21.3137Z" fill="#111111"/>
<path d="M9.13811 14.1293V14.1292C9.06242 14.0415 8.96661 13.9732 8.85878 13.93C8.75095 13.8868 8.63425 13.87 8.51851 13.881C8.42083 13.8987 8.32913 13.9403 8.2517 14.0021C8.17427 14.0638 8.11355 14.1438 8.07503 14.2348L0.764695 28.7558C0.715769 28.8528 0.692626 28.9607 0.697468 29.0691C0.70231 29.1775 0.734974 29.2829 0.792356 29.3752C0.849739 29.4676 0.929933 29.5438 1.02532 29.5967C1.1207 29.6495 1.2281 29.6773 1.33731 29.6773H11.5162C11.6354 29.6796 11.7527 29.6476 11.8539 29.5849C11.9551 29.5223 12.0359 29.4319 12.0864 29.3245C14.225 24.9391 12.9015 18.1245 9.13811 14.1293Z" fill="#111111"/>
<path d="M29.9856 28.7595C29.8486 28.4869 16.2892 1.52591 15.9558 0.855513C15.9122 0.761598 15.8438 0.681149 15.758 0.622683C15.6721 0.564216 15.5719 0.529908 15.468 0.52339L15.445 0.522949C15.3262 0.529022 15.211 0.565065 15.1101 0.627678C15.0092 0.690291 14.926 0.77741 14.8684 0.880815L14.8678 0.881419C11.1924 6.66754 10.7759 13.6536 13.7541 19.5694L18.6609 29.321C18.7129 29.4287 18.7943 29.5195 18.896 29.5832C18.9976 29.6469 19.1152 29.6807 19.2354 29.6808H29.4127C29.522 29.6809 29.6294 29.6533 29.7248 29.6004C29.8203 29.5476 29.9005 29.4714 29.9579 29.3791C30.0154 29.2867 30.048 29.1813 30.0529 29.0729C30.0577 28.9644 30.0346 28.8565 29.9856 28.7595H29.9856Z" fill="#111111"/>
</g>
<defs>
<clipPath id="clip0">
<rect width="239.303" height="29.5236" fill="white" transform="translate(0.697266 0.521484)"/>
</clipPath>
</defs>
</svg>
