<svg width="32" height="32" viewBox="0 0 32 32" fill="none" xmlns="http://www.w3.org/2000/svg">
<path d="M26.679 20.5062C25.039 20.5062 23.4524 20.2395 21.9724 19.7595C21.5057 19.5995 20.9857 19.7195 20.6257 20.0795L18.5324 22.7062C14.759 20.9062 11.2257 17.5062 9.34569 13.5995L11.9457 11.3862C12.3057 11.0128 12.4124 10.4928 12.2657 10.0262C11.7724 8.54618 11.519 6.95951 11.519 5.31951C11.519 4.59951 10.919 3.99951 10.199 3.99951H5.58569C4.86569 3.99951 3.99902 4.31951 3.99902 5.31951C3.99902 17.7062 14.3057 27.9995 26.679 27.9995C27.6257 27.9995 27.999 27.1595 27.999 26.4262V21.8262C27.999 21.1062 27.399 20.5062 26.679 20.5062Z" fill="white"/>
</svg>
