<svg width="221" height="45" viewBox="0 0 221 45" fill="none" xmlns="http://www.w3.org/2000/svg">
<g clip-path="url(#clip0)">
<path d="M25.5322 8.85561L12.7661 16.9925L25.5322 25.1293L12.7661 33.2662L0 25.0854L12.7661 16.9485L0 8.85561L12.7661 0.71875L25.5322 8.85561ZM12.7 35.8832L25.4661 27.7463L38.2322 35.8832L25.4661 44.02L12.7 35.8832ZM25.5322 25.0854L38.2982 16.9485L25.5322 8.85561L38.2322 0.71875L50.9983 8.85561L38.2322 16.9925L50.9983 25.1293L38.2322 33.2662L25.5322 25.0854Z" fill="#111111"/>
<path d="M61.0131 8.85634H71.336C77.9171 8.85634 83.3537 12.6609 83.3537 21.3475V23.1728C83.3537 31.9254 78.2693 35.8619 71.5341 35.8619H61.0131V8.85634ZM66.7798 13.7604V30.9358H71.2039C74.9457 30.9358 77.4549 28.4948 77.4549 23.0629V21.6334C77.4549 16.2015 74.8136 13.7604 71.0058 13.7604H66.7798ZM86.4132 14.0243H91.0354L91.7837 19.1044C92.6641 15.6517 94.9092 13.8044 98.9811 13.8044H100.412V19.6322H98.0347C93.3465 19.6322 92.2019 21.2595 92.2019 25.8778V35.9279H86.5012V14.0243H86.4132ZM101.556 25.4159V24.8002C101.556 17.477 106.245 13.4746 112.628 13.4746C119.143 13.4746 123.699 17.477 123.699 24.8002V25.4159C123.699 32.6072 119.275 36.4777 112.628 36.4777C105.562 36.4117 101.556 32.6292 101.556 25.4159ZM117.866 25.35V24.8002C117.866 20.7318 115.819 18.2907 112.562 18.2907C109.37 18.2907 107.257 20.5338 107.257 24.8002V25.35C107.257 29.2865 109.304 31.5296 112.562 31.5296C115.819 31.4636 117.866 29.2865 117.866 25.35ZM126.692 14.0243H131.447L131.997 18.1587C133.141 15.3878 135.585 13.4746 139.194 13.4746C144.763 13.4746 148.439 17.477 148.439 24.8881V25.5039C148.439 32.6951 144.367 36.4997 139.194 36.4997C135.739 36.4997 133.362 34.9383 132.195 32.4312V43.493H126.626L126.692 14.0243ZM142.65 25.35V24.8662C142.65 20.5118 140.405 18.3567 137.411 18.3567C134.22 18.3567 132.107 20.7977 132.107 24.8662V25.284C132.107 29.1545 134.154 31.5956 137.345 31.5956C140.625 31.5296 142.65 29.4404 142.65 25.35ZM156.869 31.8814L156.384 35.8839H151.498V6.70117H157.067V17.8948C158.299 15.036 160.743 13.4746 164.198 13.4746C169.437 13.5405 173.311 17.1471 173.311 24.4043V25.0861C173.311 32.3433 169.635 36.4997 164.066 36.4997C160.39 36.4117 158.013 34.7184 156.869 31.8814ZM167.456 25.0861V24.5363C167.456 20.5338 165.277 18.2907 162.217 18.2907C159.092 18.2907 156.913 20.7977 156.913 24.6023V25.0861C156.913 29.1545 159.026 31.5296 162.151 31.5296C165.497 31.5296 167.456 29.4404 167.456 25.0861ZM175.754 25.4159V24.8002C175.754 17.477 180.442 13.4746 186.825 13.4746C193.34 13.4746 197.896 17.477 197.896 24.8002V25.4159C197.896 32.6072 193.406 36.4777 186.825 36.4777C179.76 36.4117 175.754 32.6292 175.754 25.4159ZM192.107 25.35V24.8002C192.107 20.7318 190.061 18.2907 186.803 18.2907C183.611 18.2907 181.498 20.5338 181.498 24.8002V25.35C181.498 29.2865 183.545 31.5296 186.803 31.5296C190.083 31.4636 192.107 29.2865 192.107 25.35ZM205.358 24.5363L197.676 14.0243H204.257L208.681 20.5998L213.172 14.0243H219.687L211.895 24.4703L220.105 35.8839H213.656L208.637 28.6267L203.751 35.8839H197.016L205.358 24.5363Z" fill="#111111"/>
</g>
<defs>
<clipPath id="clip0">
<rect width="220.105" height="43.3013" fill="white" transform="translate(0 0.71875)"/>
</clipPath>
</defs>
</svg>
