<svg width="50" height="50" viewBox="0 0 50 50" fill="none" xmlns="http://www.w3.org/2000/svg">
<path d="M24.9992 4.54761C13.0048 4.54761 3.28134 14.2728 3.28134 26.2655C3.28134 38.2599 13.0048 47.9815 24.9992 47.9815C36.9936 47.9815 46.717 38.2599 46.717 26.2655C46.717 14.2728 36.9927 4.54761 24.9992 4.54761ZM30.7468 26.1746H26.9862C26.9862 32.1842 26.9862 39.5863 26.9862 39.5863H21.4123C21.4123 39.5863 21.4123 32.26 21.4123 26.1746H18.7612V21.4395H21.4123V18.3712C21.4123 16.1751 22.4548 12.747 27.0382 12.747L31.1657 12.7629V17.3622C31.1657 17.3622 28.6557 17.3622 28.1689 17.3622C27.6794 17.3622 26.9871 17.6065 26.9871 18.6508V21.4403H31.2363L30.7468 26.1746Z" fill="white"/>
</svg>
