<svg width="50" height="50" viewBox="0 0 50 50" fill="none" xmlns="http://www.w3.org/2000/svg">
<path d="M24.7787 30.3358C26.9216 30.3358 28.6587 28.5987 28.6587 26.4558C28.6587 24.3128 26.9216 22.5757 24.7787 22.5757C22.6358 22.5757 20.8986 24.3128 20.8986 26.4558C20.8986 28.5987 22.6358 30.3358 24.7787 30.3358Z" fill="white"/>
<path d="M29.6292 16.9329H19.929C18.5181 16.9329 17.2835 17.3738 16.4898 18.1674C15.6962 18.9611 15.2553 20.1956 15.2553 21.6066V31.3068C15.2553 32.7177 15.6962 33.9523 16.578 34.8341C17.4599 35.6278 18.6063 36.0687 20.0172 36.0687H29.6292C31.0401 36.0687 32.2747 35.6278 33.0683 34.8341C33.9502 34.0404 34.3911 32.8059 34.3911 31.3949V21.6948C34.3911 20.2838 33.9502 19.1374 33.1565 18.2556C32.2747 17.3738 31.1283 16.9329 29.6292 16.9329ZM24.7791 32.4531C21.4281 32.4531 18.7826 29.7195 18.7826 26.4567C18.7826 23.1057 21.5163 20.4602 24.7791 20.4602C28.0419 20.4602 30.8637 23.1057 30.8637 26.4567C30.8637 29.8076 28.1301 32.4531 24.7791 32.4531ZM31.0401 21.6066C30.2465 21.6066 29.6292 20.9893 29.6292 20.1956C29.6292 19.402 30.2465 18.7847 31.0401 18.7847C31.8338 18.7847 32.451 19.402 32.451 20.1956C32.451 20.9893 31.8338 21.6066 31.0401 21.6066Z" fill="white"/>
<path d="M24.9551 4.58667C12.9622 4.58667 3.26199 14.2868 3.26199 26.2798C3.26199 38.2727 12.9622 47.9729 24.9551 47.9729C36.9481 47.9729 46.6482 38.2727 46.6482 26.2798C46.7364 14.2868 36.9481 4.58667 24.9551 4.58667ZM36.5071 31.3944C36.5071 33.4226 35.8017 35.1863 34.5671 36.4209C33.3325 37.6554 31.5689 38.2727 29.6288 38.2727H20.0168C18.0768 38.2727 16.3131 37.6554 15.0786 36.4209C13.7558 35.1863 13.1385 33.4226 13.1385 31.3944V21.6943C13.1385 17.6378 15.8722 14.8159 20.0168 14.8159H29.717C31.7452 14.8159 33.4207 15.5214 34.6553 16.756C35.8899 17.9905 36.5071 19.666 36.5071 21.6943V31.3944Z" fill="white"/>
</svg>
