<svg width="189" height="54" viewBox="0 0 189 54" fill="none" xmlns="http://www.w3.org/2000/svg">
<g clip-path="url(#clip0)">
<path d="M41.1827 10.9226C41.1465 10.6586 40.9159 10.5122 40.7246 10.4963C40.5347 10.4803 36.8148 10.4238 36.8148 10.4238C36.8148 10.4238 33.7036 7.40157 33.3963 7.09413C33.089 6.7867 32.4888 6.8795 32.2554 6.94911C32.2525 6.95057 31.6712 7.13039 30.6926 7.43347C30.5288 6.90271 30.2881 6.25012 29.9445 5.59464C28.837 3.48027 27.2147 2.36218 25.2547 2.35929C25.2518 2.35929 25.2503 2.35929 25.2475 2.35929C25.1112 2.35929 24.9763 2.37234 24.8401 2.38394C24.7821 2.31433 24.7241 2.24617 24.6632 2.17946C23.8093 1.26585 22.7149 0.820642 21.4028 0.859797C18.8716 0.932306 16.3506 2.76099 14.3065 6.0094C12.8684 8.29488 11.7738 11.1663 11.4636 13.3894C8.55692 14.2899 6.52442 14.9193 6.47948 14.9338C5.01236 15.3949 4.96598 15.4399 4.77462 16.8234C4.63254 17.8689 0.793701 47.563 0.793701 47.563L32.9643 53.1287L46.9076 49.6613C46.9076 49.6613 41.2189 11.1866 41.1827 10.9226ZM29.082 7.93233C28.3412 8.16147 27.4988 8.4225 26.5855 8.70529C26.5667 7.42333 26.4145 5.6396 25.8172 4.09805C27.7381 4.46205 28.6833 6.63587 29.082 7.93233ZM24.9024 9.22735C23.2164 9.74938 21.3767 10.3193 19.5313 10.8907C20.0502 8.90251 21.0346 6.92301 22.2437 5.6251C22.6931 5.14219 23.3222 4.60417 24.0674 4.29673C24.7676 5.75851 24.9198 7.82792 24.9024 9.22735ZM21.4535 2.54491C22.0479 2.53185 22.5481 2.66238 22.9758 2.94371C22.2915 3.29901 21.6304 3.80947 21.01 4.4751C19.4022 6.20082 18.1699 8.87931 17.6785 11.4635C16.1461 11.9377 14.6471 12.4033 13.267 12.8296C14.1383 8.76185 17.5466 2.65802 21.4535 2.54491Z" fill="#111111"/>
<path d="M40.7253 10.5C40.5354 10.484 36.8155 10.4275 36.8155 10.4275C36.8155 10.4275 33.7044 7.40528 33.3971 7.09784C33.2825 6.98327 33.1274 6.92382 32.965 6.89917L32.9665 53.1296L46.9084 49.6636C46.9084 49.6636 41.2197 11.1903 41.1835 10.9263C41.1472 10.6624 40.9152 10.5159 40.7253 10.5Z" fill="#111111"/>
<path d="M25.2366 17.6701L23.6174 23.7303C23.6174 23.7303 21.811 22.9081 19.6698 23.043C16.5297 23.2417 16.4963 25.2226 16.5283 25.72C16.6993 28.4304 23.8275 29.0221 24.2277 35.371C24.5423 40.3654 21.579 43.782 17.3097 44.0518C12.1849 44.3751 9.36375 41.3515 9.36375 41.3515L10.4496 36.7312C10.4496 36.7312 13.2896 38.8746 15.5627 38.7311C17.0473 38.6368 17.5778 37.4288 17.5242 36.5746C17.3009 33.0391 11.4963 33.2479 11.1295 27.4385C10.8207 22.55 14.0304 17.5961 21.1122 17.1495C23.8406 16.974 25.2366 17.6701 25.2366 17.6701Z" fill="white"/>
<path d="M65.2693 30.3617C63.6661 29.4915 62.8421 28.7579 62.8421 27.7496C62.8421 26.4666 63.9867 25.6424 65.774 25.6424C67.8546 25.6424 69.7123 26.5126 69.7123 26.5126L71.1776 22.0221C71.1776 22.0221 69.8303 20.9678 65.8646 20.9678C60.3459 20.9678 56.5212 24.1292 56.5212 28.5738C56.5212 31.0938 58.307 33.0183 60.6896 34.3919C62.6135 35.4908 63.3008 36.2705 63.3008 37.4154C63.3008 38.6064 62.3389 39.5686 60.553 39.5686C57.8914 39.5686 55.378 38.1935 55.378 38.1935L53.8208 42.6841C53.8208 42.6841 56.143 44.2418 60.0497 44.2418C65.7294 44.2418 69.8059 41.4471 69.8059 36.4071C69.8044 33.7059 67.7439 31.7813 65.2693 30.3617Z" fill="#111111"/>
<path d="M87.8959 20.9222C85.1018 20.9222 82.9033 22.2513 81.2095 24.2665L81.1174 24.2204L83.5445 11.5298H77.2236L71.0866 43.8295H77.4076L79.5142 32.7887C80.338 28.6189 82.4906 26.0543 84.5065 26.0543C85.9257 26.0543 86.4765 27.0166 86.4765 28.3916C86.4765 29.2619 86.3844 30.3162 86.2018 31.1864L83.8206 43.831H90.1419L92.6144 30.7736C92.8896 29.3985 93.0734 27.7502 93.0734 26.6498C93.0708 23.0755 91.1931 20.9222 87.8959 20.9222Z" fill="#111111"/>
<path d="M107.36 20.9221C99.7566 20.9221 94.7201 27.7947 94.7201 35.4453C94.7201 40.3472 97.7422 44.2869 103.422 44.2869C110.888 44.2869 115.926 37.5985 115.926 29.7637C115.926 25.2286 113.269 20.9221 107.36 20.9221ZM104.246 39.4324C102.093 39.4324 101.177 37.5999 101.177 35.3086C101.177 31.6897 103.056 25.7795 106.49 25.7795C108.735 25.7795 109.466 27.704 109.466 29.5825C109.466 33.4761 107.59 39.4324 104.246 39.4324Z" fill="#111111"/>
<path d="M132.093 20.9221C127.826 20.9221 125.405 24.6791 125.405 24.6791H125.315L125.681 21.2889H120.094C119.819 23.5802 119.314 27.061 118.812 29.6731L114.414 52.8091H120.735L122.475 43.4626H122.613C122.613 43.4626 123.91 44.2869 126.323 44.2869C133.742 44.2869 138.597 36.6823 138.597 28.9842C138.597 24.7252 136.718 20.9221 132.093 20.9221ZM126.047 39.5229C124.406 39.5229 123.435 38.6067 123.435 38.6067L124.489 32.6966C125.222 28.7569 127.283 26.1448 129.482 26.1448C131.406 26.1448 132.001 27.9313 132.001 29.6271C132.001 33.7048 129.573 39.5229 126.047 39.5229Z" fill="#111111"/>
<path d="M147.621 11.8506C145.606 11.8506 144.003 13.4544 144.003 15.5155C144.003 17.394 145.193 18.677 146.98 18.677H147.071C149.041 18.677 150.735 17.348 150.781 15.0121C150.781 13.1796 149.544 11.8506 147.621 11.8506Z" fill="#111111"/>
<path d="M138.781 43.8294H145.1L149.406 21.427H143.039L138.781 43.8294Z" fill="#111111"/>
<path d="M165.483 21.381H161.086L161.314 20.3266C161.68 18.1734 162.963 16.2489 165.07 16.2489C166.194 16.2489 167.084 16.5696 167.084 16.5696L168.321 11.6217C168.321 11.6217 167.222 11.0723 164.885 11.0723C162.641 11.0723 160.398 11.7137 158.703 13.1794C156.55 15.012 155.542 17.6686 155.039 20.3266L154.857 21.381H151.925L151.008 26.1463H153.941L150.597 43.8309H156.918L160.262 26.1463H164.613L165.483 21.381Z" fill="#111111"/>
<path d="M180.688 21.4268C180.688 21.4268 176.737 31.3845 174.962 36.8201H174.87C174.75 35.0696 173.313 21.4268 173.313 21.4268H166.671L170.475 41.9967C170.567 42.4541 170.521 42.7303 170.337 43.051C169.603 44.4707 168.367 45.8457 166.901 46.8541C165.711 47.7242 164.383 48.2737 163.33 48.6404L165.07 54.0012C166.353 53.7265 169.008 52.6722 171.252 50.565C174.139 47.8623 176.794 43.6925 179.542 38.011L187.282 21.4253H180.688V21.4268Z" fill="#111111"/>
</g>
<defs>
<clipPath id="clip0">
<rect width="187.245" height="53.1425" fill="white" transform="translate(0.793701 0.857422)"/>
</clipPath>
</defs>
</svg>
