<svg width="175" height="46" viewBox="0 0 175 46" fill="none" xmlns="http://www.w3.org/2000/svg">
<g clip-path="url(#clip0)">
<path d="M56.1481 35.4156L58.3094 30.3943C60.6449 32.1378 63.7474 33.0444 66.815 33.0444C69.0808 33.0444 70.5101 32.1727 70.5101 30.8476C70.4752 27.1513 56.9499 30.0456 56.8453 20.77C56.8104 16.0625 60.9935 12.436 66.9196 12.436C70.4403 12.436 73.9611 13.3078 76.471 15.2954L74.4492 20.4213C72.1484 18.9568 69.29 17.9107 66.571 17.9107C64.7235 17.9107 63.5034 18.7824 63.5034 19.8983C63.5383 23.5248 77.1682 21.5372 77.3076 30.3943C77.3076 35.2064 73.2291 38.5888 67.3727 38.5888C63.0851 38.5888 59.146 37.5776 56.1481 35.4156ZM139.078 28.581C137.997 30.464 135.975 31.7542 133.64 31.7542C130.189 31.7542 127.4 28.9646 127.4 25.5124C127.4 22.0602 130.189 19.2706 133.64 19.2706C135.975 19.2706 137.997 20.5608 139.078 22.4438L145.039 19.1311C142.808 15.1559 138.52 12.436 133.64 12.436C126.424 12.436 120.568 18.2942 120.568 25.5124C120.568 32.7306 126.424 38.5888 133.64 38.5888C138.555 38.5888 142.808 35.9038 145.039 31.8937L139.078 28.581ZM80.3055 1.59131H87.7653V38.1006H80.3055V1.59131ZM147.967 1.59131V38.1006H155.427V27.1513L164.281 38.1006H173.832L162.573 25.094L172.996 12.9591H163.863L155.427 23.0366V1.59131H147.967ZM109.936 28.6507C108.855 30.4291 106.624 31.7542 104.114 31.7542C100.663 31.7542 97.8745 28.9646 97.8745 25.5124C97.8745 22.0602 100.663 19.2706 104.114 19.2706C106.624 19.2706 108.855 20.6654 109.936 22.4787V28.6507ZM109.936 12.9591V15.923C108.716 13.8657 105.683 12.436 102.511 12.436C95.9572 12.436 90.7981 18.2245 90.7981 25.4775C90.7981 32.7306 95.9572 38.5888 102.511 38.5888C105.683 38.5888 108.716 37.1591 109.936 35.1018V38.0657H117.396V12.9591H109.936Z" fill="#111111"/>
<path d="M10.0289 28.6168C10.0289 31.1623 7.97225 33.2197 5.42754 33.2197C2.88282 33.2197 0.826134 31.1623 0.826134 28.6168C0.826134 26.0713 2.88282 24.0139 5.42754 24.0139H10.0289V28.6168ZM12.3296 28.6168C12.3296 26.0713 14.3863 24.0139 16.931 24.0139C19.4758 24.0139 21.5325 26.0713 21.5325 28.6168V40.124C21.5325 42.6696 19.4758 44.7269 16.931 44.7269C14.3863 44.7269 12.3296 42.6696 12.3296 40.124V28.6168Z" fill="#111111"/>
<path d="M16.9317 10.1347C14.387 10.1347 12.3303 8.07739 12.3303 5.53185C12.3303 2.98631 14.387 0.928955 16.9317 0.928955C19.4765 0.928955 21.5331 2.98631 21.5331 5.53185V10.1347H16.9317ZM16.9317 12.4711C19.4765 12.4711 21.5331 14.5284 21.5331 17.074C21.5331 19.6195 19.4765 21.6768 16.9317 21.6768H5.39337C2.84866 21.6768 0.791969 19.6195 0.791969 17.074C0.791969 14.5284 2.84866 12.4711 5.39337 12.4711H16.9317Z" fill="#111111"/>
<path d="M35.3719 17.074C35.3719 14.5284 37.4286 12.4711 39.9733 12.4711C42.5181 12.4711 44.5748 14.5284 44.5748 17.074C44.5748 19.6195 42.5181 21.6768 39.9733 21.6768H35.3719V17.074ZM33.0712 17.074C33.0712 19.6195 31.0145 21.6768 28.4698 21.6768C25.9251 21.6768 23.8684 19.6195 23.8684 17.074V5.53185C23.8684 2.98631 25.9251 0.928955 28.4698 0.928955C31.0145 0.928955 33.0712 2.98631 33.0712 5.53185V17.074Z" fill="#111111"/>
<path d="M28.4698 35.5211C31.0145 35.5211 33.0712 37.5785 33.0712 40.124C33.0712 42.6696 31.0145 44.7269 28.4698 44.7269C25.9251 44.7269 23.8684 42.6696 23.8684 40.124V35.5211H28.4698ZM28.4698 33.2197C25.9251 33.2197 23.8684 31.1623 23.8684 28.6168C23.8684 26.0713 25.9251 24.0139 28.4698 24.0139H40.0082C42.5529 24.0139 44.6096 26.0713 44.6096 28.6168C44.6096 31.1623 42.5529 33.2197 40.0082 33.2197H28.4698Z" fill="#111111"/>
</g>
<defs>
<clipPath id="clip0">
<rect width="173.598" height="44.2854" fill="white" transform="translate(0.547852 0.71875)"/>
</clipPath>
</defs>
</svg>
