<svg width="50" height="50" viewBox="0 0 50 50" fill="none" xmlns="http://www.w3.org/2000/svg">
<path d="M25.0006 4.54761C13.0061 4.54761 3.28271 14.2728 3.28271 26.2655C3.28271 38.2599 13.0061 47.9815 25.0006 47.9815C36.995 47.9815 46.7166 38.2599 46.7166 26.2655C46.7166 14.2728 36.9941 4.54761 25.0006 4.54761ZM35.9402 21.8866C35.9516 22.1212 35.9561 22.3567 35.9561 22.5948C35.9561 29.8276 30.451 38.1664 20.3845 38.1664C17.2941 38.1664 14.4164 37.2606 11.9945 35.7084C12.4232 35.7587 12.858 35.7843 13.2998 35.7843C15.8645 35.7843 18.2246 34.9094 20.097 33.4418C17.7025 33.3968 15.682 31.8138 14.9852 29.6398C15.3186 29.705 15.6617 29.7377 16.0144 29.7377C16.5136 29.7377 16.9969 29.6724 17.4564 29.5463C14.9517 29.0436 13.0652 26.8299 13.0652 24.1805C13.0652 24.1567 13.0652 24.1338 13.0661 24.11C13.8034 24.5201 14.6474 24.7662 15.5453 24.7953C14.0759 23.8119 13.1102 22.1388 13.1102 20.2391C13.1102 19.2364 13.3801 18.2953 13.851 17.4875C16.5507 20.7983 20.5838 22.9776 25.1329 23.2051C25.0394 22.8056 24.9909 22.3867 24.9909 21.958C24.9909 18.9365 27.4409 16.4856 30.4642 16.4856C32.0385 16.4856 33.4602 17.1506 34.4585 18.2133C35.7056 17.969 36.8768 17.5122 37.9343 16.8851C37.5242 18.1639 36.6572 19.2364 35.5266 19.9128C36.6352 19.7805 37.69 19.486 38.6707 19.0512C37.9387 20.1509 37.01 21.1149 35.9402 21.8866Z" fill="white"/>
</svg>
