<svg width="50" height="50" viewBox="0 0 50 50" fill="none" xmlns="http://www.w3.org/2000/svg">
<path d="M26.2373 14.2651C20.2608 14.2651 15.4002 19.1253 15.3979 25.0992C15.397 27.1465 15.9699 29.1403 17.0544 30.8654L17.3121 31.2753L16.2175 35.2735L20.3184 34.1978L20.7139 34.4326C22.3775 35.4197 24.2844 35.9421 26.2286 35.9429H26.233C32.205 35.9429 37.0655 31.0823 37.0678 25.1078C37.069 22.2128 35.943 19.4905 33.8975 17.4425C31.8518 15.3946 29.1313 14.266 26.2373 14.2651ZM32.6104 29.7577C32.3391 30.5184 31.0377 31.2129 30.4119 31.3064C29.8506 31.3903 29.1406 31.4252 28.3603 31.1773C27.8872 31.0272 27.2805 30.8268 26.5034 30.4912C23.2359 29.0803 21.1019 25.7904 20.9391 25.5729C20.7763 25.3556 19.609 23.8067 19.609 22.2034C19.609 20.6003 20.4506 19.8122 20.7491 19.486C21.0475 19.1601 21.4005 19.0785 21.6176 19.0785C21.8348 19.0785 22.0522 19.0805 22.2419 19.0899C22.4418 19.1001 22.7104 19.014 22.9748 19.6491C23.2462 20.3014 23.8976 21.9047 23.9791 22.0677C24.0606 22.2307 24.1148 22.4209 24.0063 22.6383C23.8977 22.8556 23.8435 22.9915 23.6806 23.1817C23.5178 23.3719 23.3385 23.6063 23.192 23.7523C23.0289 23.9148 22.8591 24.0911 23.0491 24.417C23.2392 24.7433 23.8928 25.8098 24.8612 26.6735C26.1053 27.7832 27.1549 28.1272 27.4806 28.2902C27.8063 28.4534 27.9963 28.426 28.1863 28.2087C28.3764 27.9913 29.0006 27.2576 29.2177 26.9315C29.4349 26.6056 29.652 26.6599 29.9505 26.7685C30.2491 26.8774 31.8506 27.6652 32.1763 27.8282C32.502 27.9912 32.7191 28.0728 32.8005 28.2087C32.8819 28.3445 32.8819 28.9967 32.6104 29.7577Z" fill="white"/>
<path d="M25.757 3.85718C13.763 3.85718 4.03934 13.5791 4.03934 25.5731C4.03934 37.5671 13.763 47.2908 25.757 47.2908C37.7501 47.2908 47.4738 37.5671 47.4738 25.5731C47.4738 13.5791 37.7501 3.85718 25.757 3.85718ZM26.2336 38.1434C26.2332 38.1434 26.2339 38.1434 26.2336 38.1434H26.2282C24.0465 38.1426 21.9026 37.5951 19.9987 36.5567L13.0881 38.3694L14.9375 31.6143C13.7967 29.6373 13.1965 27.3948 13.1975 25.0972C13.2003 17.9098 19.0483 12.0622 26.2335 12.0622C29.7207 12.0636 32.9939 13.4212 35.455 15.8852C37.9162 18.3492 39.2709 21.6243 39.2696 25.1076C39.2665 32.2951 33.4181 38.1434 26.2336 38.1434Z" fill="white"/>
</svg>
